<?xml version="1.0" encoding="UTF-8" standalone="no"?>
<svg
   xmlns:osb="http://www.openswatchbook.org/uri/2009/osb"
   xmlns:dc="http://purl.org/dc/elements/1.1/"
   xmlns:cc="http://creativecommons.org/ns#"
   xmlns:rdf="http://www.w3.org/1999/02/22-rdf-syntax-ns#"
   xmlns:svg="http://www.w3.org/2000/svg"
   xmlns="http://www.w3.org/2000/svg"
   id="svg4846"
   version="1.1"
   viewBox="0 0 681.23749 411.14468"
   height="411.14468mm"
   width="681.23749mm">
  <defs
     id="defs4840">
    <linearGradient
       osb:paint="solid"
       id="linearGradient7258">
      <stop
         id="stop7256"
         offset="0"
         style="stop-color:#000000;stop-opacity:1;" />
    </linearGradient>
    <linearGradient
       osb:paint="solid"
       id="linearGradient7226">
      <stop
         id="stop7224"
         offset="0"
         style="stop-color:#222222;stop-opacity:1;" />
    </linearGradient>
    <linearGradient
       osb:paint="solid"
       id="linearGradient7038">
      <stop
         id="stop7036"
         offset="0"
         style="stop-color:#333330;stop-opacity:1;" />
    </linearGradient>
    <linearGradient
       osb:paint="solid"
       id="linearGradient6853">
      <stop
         id="stop6851"
         offset="0"
         style="stop-color:#00ff00;stop-opacity:1;" />
    </linearGradient>
  </defs>
  <metadata
     id="metadata4843">
    <rdf:RDF>
      <cc:Work
         rdf:about="">
        <dc:format>image/svg+xml</dc:format>
        <dc:type
           rdf:resource="http://purl.org/dc/dcmitype/StillImage" />
        <dc:title></dc:title>
      </cc:Work>
    </rdf:RDF>
  </metadata>
  <g
     transform="translate(345.37998,155.61932)"
     id="layer1">
    <path
       d="M 41.010413,27.351785 -42.712405,102.31283 40.541055,26.830846 -71.253127,38.26457 40.467536,26.133515 -56.696431,-30.327379 40.817939,25.526149 -4.6024807,-77.26322 41.458422,25.240742 65.130606,-84.615058 42.144342,25.386309 125.86716,-49.57474 42.6137,25.907249 154.40788,14.473524 42.687218,26.604579 139.85119,83.065473 42.336815,27.211945 87.757235,130.00131 41.696333,27.497352 18.024149,137.35315 Z"
       id="path6933"
       style="opacity:0.98999999;fill:#333333;fill-opacity:1;stroke-width:0.26458332" />
    <path
       d="M 54.912898,54.440592 58.984319,35.44439 44.444104,48.329044 58.903641,35.353916 39.56695,37.231296 58.89155,35.233298 42.144343,25.386309 58.952666,35.12861 51.191805,17.318467 59.063643,35.079839 63.253515,16.109411 59.182093,35.105613 73.722308,22.220959 59.262772,35.196088 l 19.33669,-1.877381 -19.3246,1.997998 16.747208,9.846989 -16.808323,-9.742301 7.76086,17.810143 -7.871838,-17.761372 z"
       id="path6937"
       style="opacity:0.98999999;fill:#333333;fill-opacity:1;stroke-width:0.26458332" />
    <path
       d="m -193.52379,55.851183 -73.00843,-121.072982 -12.97855,140.785136 12.09985,-140.863377 -93.25129,106.268965 92.5864,-106.848749 -137.90521,31.161661 137.70809,-32.021531 -129.88403,-55.848336 130.22997,55.036821 -72.25155,-121.526171 73.00842,121.072983 12.97856,-140.785133 -12.09986,140.863374 93.2513,-106.268964 -92.5864,106.848748 137.90521,-31.161662 -137.70809,32.021532 129.88403,55.848338 -130.22998,-55.036824 z"
       id="path7272"
       style="opacity:0.76000001;fill-opacity:1;fill-rule:nonzero;stroke:none;stroke-width:0.26458332;stroke-opacity:1" />
    <path
       d="m -295.57736,28.636903 82.16768,-63.153043 -103.6109,2.148483 103.59548,-2.794934 -85.08583,-59.162801 85.45332,58.630746 -34.06085,-97.875904 34.6709,97.661472 29.9742,-99.203742 -29.35462,99.388839 82.56013,-62.639119 -82.16768,63.153043 103.6109,-2.148482 -103.59548,2.794933 85.08583,59.162801 -85.45333,-58.630746 34.06086,97.875906 -34.6709,-97.661473 -29.9742,99.20374 29.35462,-99.388837 z"
       id="path7274"
       style="opacity:0.76000001;fill-opacity:1;fill-rule:nonzero;stroke:none;stroke-width:0.26458332;stroke-opacity:1" />
    <path
       d="m -287.2619,-8.4047571 150.26672,-2.6809959 -122.6042,-86.922288 123.14418,86.155593 L -184.55245,-154.239 -135.5677,-12.155329 -90.786473,-155.61932 -134.67167,-11.878704 -14.116874,-101.62177 -134.10936,-11.128234 16.171169,-12.87157 -134.09555,-10.190575 -11.491347,76.731713 -134.63553,-9.4238786 -86.538282,132.96267 -135.52303,-9.1209983 -180.30426,134.34299 -136.41906,-9.3976234 -256.97385,80.345441 -136.98137,-10.148093 Z"
       id="path7276"
       style="opacity:0.76000001;fill-opacity:1;fill-rule:nonzero;stroke:none;stroke-width:0.26458332;stroke-opacity:1" />
    <path
       d="m -193.52378,55.851171 -64.96952,55.611689 85.28997,-6.27062 -85.24918,6.80268 72.68681,45.05915 -72.96655,-44.60473 32.31976,79.17785 -32.81317,-78.97465 -20.39234,83.05331 19.87372,-83.17893 -65.31526,55.20522 64.96953,-55.61169 -85.28997,6.27062 85.24918,-6.80268 -72.68681,-45.059142 72.96655,44.604732 -32.31977,-79.177854 32.81318,78.974644 20.39233,-83.053306 -19.87371,83.178936 z"
       id="path7278"
       style="opacity:0.76000001;fill-opacity:1;fill-rule:nonzero;stroke:none;stroke-width:0.26458332;stroke-opacity:1" />
    <path
       d="m 622.14882,346.89287 -842.2425,-200.28905 559.55055,660.59921 -563.66155,-657.09496 64.39544,863.33153 -69.78105,-862.91293 -455.35655,736.30058 450.75345,-739.12749 -801.17781,328.02781 799.11544,-333.02048 -840.97634,-205.540416 842.24247,200.289046 -559.55055,-660.59921 563.66155,657.09496 -64.39544,-863.33154 69.78104,862.91294 455.35655,-736.30058 -450.75344,739.12749 801.1778,-328.02781 -799.11544,333.02048 z"
       id="path7280"
       style="opacity:0.76000001;fill-opacity:1;fill-rule:nonzero;stroke:none;stroke-width:0.26458332;stroke-opacity:1" />
    <path
       d="M -163.2857,129.17857 -243.05636,0.63898016 -255.01543,151.44602 -243.99757,0.56729578 -342.31482,115.5434 -244.71689,-0.04392852 -391.83847,35.184264 -244.93957,-0.96122585 -384.67004,-58.936912 -244.58054,-1.8342198 -323.54761,-130.86904 -243.77695,-2.3294563 -231.81789,-153.1365 -242.83574,-2.257772 -144.5185,-117.23387 -242.11642,-1.6465477 -94.994842,-36.874741 -241.89374,-0.72925033 -102.16328,57.246436 -242.25277,0.14374361 Z"
       id="path7282"
       style="opacity:0.76000001;fill-opacity:1;fill-rule:nonzero;stroke:none;stroke-width:0.26458332;stroke-opacity:1" />
    <path
       d="m -202.59524,157.90476 19.59054,-200.731513 -134.77493,150.042143 133.8361,-150.880167 -197.22777,42.16793 196.96082,-43.397736 -184.3463,-81.813007 184.8532,80.661163 -101.05082,-174.544153 102.13794,173.910237 20.84265,-200.605367 -19.59054,200.731512 L -46.589421,-196.59635 -180.42552,-45.716174 16.802249,-87.884104 -180.15857,-44.486368 4.1877346,37.326636 -180.66547,-43.334524 -79.614648,131.20963 -181.75259,-42.700608 Z"
       id="path7284"
       style="opacity:0.76000001;fill-opacity:1;fill-rule:nonzero;stroke:none;stroke-width:0.26458332;stroke-opacity:1" />
    <path
       d="M -251.73214,212.33334 -214.04748,51.230183 -339.90167,158.6317 -214.72008,50.446991 -379.66728,63.361409 -214.80387,49.418034 -355.83986,-37.087512 -214.26685,48.536339 -277.52068,-104.34699 -213.31415,48.138683 -174.62501,-112.7262 -212.30966,48.376957 -86.455481,-59.024557 -211.63707,49.160149 -46.68987,36.245731 -211.55328,50.189105 -70.517285,136.69465 -212.09029,51.070801 -148.83646,203.95413 -213.043,51.468457 Z"
       id="path7286"
       style="opacity:0.76000001;fill-opacity:1;fill-rule:nonzero;stroke:none;stroke-width:0.26458332;stroke-opacity:1" />
    <path
       d="M -250.22023,242.57143 -233.4729,90.518837 -337.10018,203.04373 -234.17703,89.874433 -384.15373,119.9984 -234.36791,88.939221 -373.40803,25.155927 l 139.4354,62.914495 -74.99495,-133.327501 75.8254,132.856966 17.69576,-151.945135 L -232.19376,87.707344 -128.56648,-24.817548 -231.48963,88.351748 -81.512926,58.227785 -231.29874,89.28696 -92.258624,153.07025 -231.69402,90.155759 -156.69908,223.48326 -232.52448,90.626294 Z"
       id="path7288"
       style="opacity:0.76000001;fill-opacity:1;fill-rule:nonzero;stroke:none;stroke-width:0.26458332;stroke-opacity:1" />
    <path
       d="M -201.83928,182.09524 -239.08879,29.458886 -299.57665,174.4644 -239.99474,29.084288 -374.16256,110.84234 -240.50749,28.248723 -397.10771,15.53051 -240.43119,27.271349 -359.64785,-75.0652 l 119.85288,101.59069 -36.29639,-152.8658 37.24951,152.636348 60.48787,-145.005518 -59.58191,145.380117 134.16782,-81.758049 L -237.42314,27.506202 -80.822921,40.224414 -237.49945,28.483576 -118.28279,130.82012 -238.13567,29.229435 Z"
       id="path7290"
       style="opacity:0.76000001;fill-opacity:1;fill-rule:nonzero;stroke:none;stroke-width:0.26458332;stroke-opacity:1" />
    <path
       d="m -173.20334,105.19225 -60.96517,-129.549248 -27.70231,140.471848 26.82528,-140.641965 -104.97892,97.361106 104.36938,-98.01424 -142.15716,17.0617287 142.04793,-17.9484037 -125.03619,-69.754649 125.469,68.973113 -60.15565,-129.92712 60.96517,129.549242 27.70231,-140.471852 -26.82528,140.64197 104.97892,-97.36111 -104.36938,98.014243 142.157157,-17.061729 -142.047927,17.948404 125.03619,69.75465 -125.469,-68.973114 z"
       id="path7292"
       style="opacity:0.76000001;fill-opacity:1;fill-rule:nonzero;stroke:none;stroke-width:0.26458332;stroke-opacity:1" />
    <path
       d="m -126.33427,24.599194 -84.86702,-59.48528 33.0821,98.216516 -33.69429,-98.008184 -30.96624,98.904 30.34852,-99.095293 -83.18653,61.813519 82.79921,-62.331368 -103.63239,1.112374 103.62344,-1.758979 -84.49421,-60.013661 84.86702,59.485281 -33.0821,-98.216519 33.69429,98.008187 30.96624,-98.903997 -30.34851,99.095289 83.18653,-61.813519 -82.79922,62.331368 103.63239,-1.112373 -103.62343,1.758979 z"
       id="path7294"
       style="opacity:0.76000001;fill-opacity:1;fill-rule:nonzero;stroke:none;stroke-width:0.26458332;stroke-opacity:1" />
    <path
       d="m -131.53571,-76.440478 -48.65323,5.393181 42.37929,24.499384 -42.53133,-24.234476 19.88518,44.730334 -20.16389,-44.605387 -10.20438,47.875817 9.90545,-47.938557 -36.39621,32.734365 36.19126,-32.960826 -48.68594,5.089498 48.65323,-5.393181 -42.37928,-24.499384 42.53132,24.234476 -19.88518,-44.730336 20.1639,44.60539 10.20438,-47.87582 -9.90546,47.938559 36.39622,-32.734369 -36.19126,32.960831 z"
       id="path7296"
       style="opacity:0.76000001;fill-opacity:1;fill-rule:nonzero;stroke:none;stroke-width:0.26458332;stroke-opacity:1" />
    <path
       d="m -120.95237,-63.589284 -88.94512,27.544166 87.95928,30.5463612 -88.14817,-29.9969342 53.20586,76.413697 -53.68162,-76.080225 -1.8704,93.093597 1.2895,-93.103455 -56.23223,74.214907 55.76806,-74.564331 -89.11526,26.9886459 88.94513,-27.5441659 -87.95929,-30.546361 88.14817,29.996934 -53.20585,-76.413692 53.68161,76.08022 1.8704,-93.0936 -1.28949,93.103458 56.23223,-74.214908 -55.76807,74.564332 z"
       id="path7298"
       style="opacity:0.76000001;fill-opacity:1;fill-rule:nonzero;stroke:none;stroke-width:0.26458332;stroke-opacity:1" />
    <path
       d="m -107.20504,-37.173444 -77.42249,-51.381503 31.89087,87.2769932 -32.43482,-87.0763072 -25.49988,89.35355134 24.94185,-89.51092134 -73.15053,57.30009 72.79157,-57.755406 -92.86017,3.359941 92.8374,-3.939288 -77.10038,-51.863586 77.42249,51.381499 -31.89087,-87.276989 32.43483,87.076303 25.49987,-89.353553 -24.94185,89.510923 73.15054,-57.300093 -72.79158,57.755409 92.860171,-3.359942 -92.837401,3.939289 z"
       id="path7300"
       style="opacity:0.76000001;fill-opacity:1;fill-rule:nonzero;stroke:none;stroke-width:0.26458332;stroke-opacity:1" />
    <path
       d="m -86.455481,-59.024562 -44.705309,-17.11098 25.85893,40.282326 -26.10977,-40.120192 -2.75705,47.788582 2.45882,-47.804855 -30.31993,37.041223 30.08821,-37.229687 -46.30161,12.145377 46.22493,-12.434045 -44.59767,-17.389591 44.7053,17.11098 -25.85892,-40.282326 26.10977,40.120192 2.75704,-47.788582 -2.45881,47.804855 30.31993,-37.041225 -30.08821,37.229688 46.301614,-12.145376 -46.224934,12.434045 z"
       id="path7302"
       style="opacity:0.76000001;fill-opacity:1;fill-rule:nonzero;stroke:none;stroke-width:0.26458332;stroke-opacity:1" />
    <path
       d="m -62.744036,-62.077373 -65.487664,-61.543347 16.25518,88.385444 -16.80636,-88.282304 -38.80094,81.059891 38.2944,-81.300411 -79.03642,42.772205 78.768,-43.264535 -89.08268,-11.853 89.15491,11.29693 -65.10239,-61.95077 65.48767,61.54335 -16.25519,-88.38544 16.80637,88.28229 38.800935,-81.05988 -38.294405,81.30041 79.036429,-42.77221 -78.768009,43.26453 89.082688,11.85301 -89.154908,-11.29693 z"
       id="path7304"
       style="opacity:0.76000001;fill-opacity:1;fill-rule:nonzero;stroke:none;stroke-width:0.26458332;stroke-opacity:1" />
    <path
       d="m -39.309538,-11.428575 -61.461742,-101.338305 -10.57834,118.047011 9.84156,-118.110711 -77.94434,89.284239 77.38573,-89.768849 -115.53827,26.417933 115.37118,-27.138333 -109.00049,-46.53913 109.28875,45.8581 -60.82823,-101.71983 61.46174,101.33831 10.578344,-118.04701 -9.841564,118.11071 77.944346,-89.28424 -77.385726,89.76885 115.538259,-26.41793 -115.371176,27.13833 L 9.1509825,-67.2903 -100.13777,-113.1484 Z"
       id="path7306"
       style="opacity:0.76000001;fill-opacity:1;fill-rule:nonzero;stroke:none;stroke-width:0.26458332;stroke-opacity:1" />
    <path
       d="m -126.33427,24.59919 -2.0678,-121.816645 -70.55029,99.3288842 69.92914,-99.7671582 -115.46043,38.890335 115.21553,-39.610007 -116.26863,-36.402999 116.4935,35.676818 -72.66614,-97.791628 73.27491,97.336315 -1.30767,-121.827175 2.0678,121.816644 70.550292,-99.328884 -69.929142,99.767157 115.460437,-38.890337 -115.215527,39.61001 116.26862,36.403 -116.4935,-35.676819 72.666145,97.79162667 -73.274915,-97.33631367 z"
       id="path7308"
       style="opacity:0.76000001;fill-opacity:1;fill-rule:nonzero;stroke:none;stroke-width:0.26458332;stroke-opacity:1" />
    <path
       d="m -135.31549,60.386902 -2.8009,-105.910097 -60.53015,86.953404 59.98642,-87.329396 -100.07985,34.768051 99.86096,-35.391835 -101.40245,-30.697515 101.59202,30.064205 -63.99276,-84.437679 64.51837,84.036744 -2.14001,-105.925514 2.8009,105.910099 60.530155,-86.953399 -59.986415,87.329392 100.079848,-34.768051 -99.860958,35.391835 101.402442,30.697515 -101.592012,-30.064205 63.992755,84.437674 -64.518365,-84.036739 z"
       id="path7310"
       style="opacity:0.76000001;fill-opacity:1;fill-rule:nonzero;stroke:none;stroke-width:0.26458332;stroke-opacity:1" />
    <path
       d="M -140.60714,135.22619 -153.04311,0.05776007 -223.15879,116.28577 -153.76969,-0.37747265 -278.81158,52.439999 -154.10169,-1.1566585 -286.30803,-31.924204 -153.91229,-1.9821751 -242.78476,-104.58258 -153.27383,-2.538703 -164.86616,-137.7821 -152.43019,-2.6136676 -82.314505,-118.84168 -151.7036,-2.1784348 -26.661714,-54.995907 -151.37161,-1.3992489 -19.165263,29.368297 -151.56101,-0.57373241 -62.688542,102.02667 -152.19947,-0.01720449 Z"
       id="path7312"
       style="opacity:0.76000001;fill-opacity:1;fill-rule:nonzero;stroke:none;stroke-width:0.26458332;stroke-opacity:1" />
    <path
       d="m -141.36309,151.85713 -10.00023,-85.328589 -42.53113,74.646339 42.06454,-74.910264 -78.28443,35.390984 78.06208,-35.87876 -84.13573,-17.38252 84.24255,16.857206 -57.85005,-63.5164953 58.24524,63.1542963 -9.46761,-85.389329 10.00023,85.328593 42.53113,-74.6463413 -42.06454,74.9102663 78.284425,-35.390988 -78.062075,35.878764 84.135731,17.38252 -84.242551,-16.857206 57.850045,63.516494 -58.245245,-63.154295 z"
       id="path7314"
       style="opacity:0.76000001;fill-opacity:1;fill-rule:nonzero;stroke:none;stroke-width:0.26458332;stroke-opacity:1" />
    <path
       d="m -125.48809,226.69643 -15.25791,-90.55358 -41.39442,81.97107 40.88215,-82.22776 -81.67018,41.98495 81.40662,-42.49372 -90.7507,-14.03799 90.83652,13.47146 -65.16754,-64.698887 65.56997,64.291007 -14.69259,-90.647015 15.25791,90.553575 41.394421,-81.971064 -40.882151,82.227754 81.670178,-41.984951 -81.406618,42.493731 90.750698,14.03798 -90.836518,-13.47146 65.167532,64.69889 -65.569962,-64.29101 z"
       id="path7316"
       style="opacity:0.76000001;fill-opacity:1;fill-rule:nonzero;stroke:none;stroke-width:0.26458332;stroke-opacity:1" />
    <path
       d="M -294.06546,106.5 -144.85842,171.1775 -226.67765,30.637348 -143.98309,170.66424 -127.56882,8.8727328 -142.97326,170.76351 -34.595168,49.5195 -142.21463,171.43739 16.730525,137.05197 -141.99698,172.42847 6.8035907,238.0357 -142.40345,173.35821 l 81.81923,140.54015 -82.69456,-140.02689 -16.41427,161.7915 15.40444,-161.89077 -108.37809,121.24401 107.61946,-121.91789 -158.94516,34.38542 158.72751,-35.37651 z"
       id="path7318"
       style="opacity:0.76000001;fill-opacity:1;fill-rule:nonzero;stroke:none;stroke-width:0.26458332;stroke-opacity:1" />
    <path
       d="m -259.29167,189.65475 8.99449,2.96702 -5.48465,-7.72158 5.53273,7.68721 0.10144,-9.47069 -0.0423,9.47113 5.6488,-7.60231 -5.60125,7.63741 9.03851,-2.83012 -9.02068,2.88646 8.97581,3.02309 -8.9945,-2.96702 5.48466,7.72157 -5.53273,-7.6872 -0.10144,9.47069 0.0423,-9.47114 -5.6488,7.60232 5.60125,-7.63742 -9.03851,2.83013 9.02068,-2.88647 z"
       id="path7320"
       style="opacity:0.76000001;fill-opacity:1;fill-rule:nonzero;stroke:none;stroke-width:0.26458332;stroke-opacity:1" />
    <path
       d="m -289.52977,127.66667 62.71465,63.15718 -13.06527,-88.04121 13.61436,87.95798 41.1793,-78.90641 -40.68616,79.16181 79.69478,-39.63203 -79.44594,40.12853 87.76956,14.78042 -87.86007,-14.23249 62.31934,63.54727 -62.71464,-63.15718 13.06526,88.04121 -13.61435,-87.95797 -41.1793,78.9064 40.68615,-79.16181 -79.69477,39.63203 79.44593,-40.12852 -87.76955,-14.78043 87.86007,14.23249 z"
       id="path7322"
       style="opacity:0.76000001;fill-opacity:1;fill-rule:nonzero;stroke:none;stroke-width:0.26458332;stroke-opacity:1" />
    <path
       d="M -324.30358,-78.708341 -313.1271,143.64153 -190.31405,-42.049971 -311.96607,144.40422 -103.4615,66.364341 -311.47507,145.70369 -96.920637,205.12401 -311.84165,147.04359 -173.18986,321.22757 -312.92579,147.91211 -303.13691,370.32739 -314.31339,147.97752 -437.12644,333.66902 -315.47443,147.21483 -523.979,225.25471 -315.96542,145.91536 -530.51985,86.495036 -315.59884,144.57546 -454.25063,-29.608518 -314.5147,143.70694 Z"
       id="path7324"
       style="opacity:0.76000001;fill-opacity:1;fill-rule:nonzero;stroke:none;stroke-width:0.26458332;stroke-opacity:1" />
    <path
       d="m -303.89285,-161.8631 -4.66611,115.512713 72.23623,-90.260103 -71.67164,90.709072 111.4939,-30.562564 -111.30103,31.257649 108.16468,40.808834 -108.41721,-40.133133 63.52024,96.592645 -64.1217,-96.194422 -5.38678,115.481347 4.66611,-115.512711 -72.23623,90.260102 71.67164,-90.709071 -111.4939,30.562564 111.30103,-31.257649 -108.16468,-40.808834 108.41721,40.133133 -63.52024,-96.592642 64.1217,96.194419 z"
       id="path7326"
       style="opacity:0.76000001;fill-opacity:1;fill-rule:nonzero;stroke:none;stroke-width:0.26458332;stroke-opacity:1" />
    <path
       d="m -210.0303,-77.438933 -113.3632,-23.949217 77.09758,86.491285 -77.63576,-86.008535 11.53496,115.289739 -12.2541,-115.215529 -58.43363,100.05144485 57.80821,-100.41409485 -106.08256,46.596886 105.78975,-47.257896 -113.21156,-24.65609 113.3632,23.94921 -77.09759,-86.49128 77.63576,86.00854 -11.53496,-115.28974 12.2541,115.21552 58.43364,-100.05144 -57.80822,100.4141 106.08257,-46.59689 -105.78975,47.2579 z"
       id="path7328"
       style="opacity:0.76000001;fill-opacity:1;fill-rule:nonzero;stroke:none;stroke-width:0.26458332;stroke-opacity:1" />
    <path
       d="m -292.17082,31.956114 12.73314,-116.485891 -79.3098,86.2615262 78.77002,-86.7547102 -114.86623,23.169908 114.71942,-23.886179 -106.54766,-48.771828 106.8499,48.106062 -57.53151,-102.084382 58.16736,101.72342 13.45973,-116.40417 -12.73315,116.485887 79.3098,-86.261527 -78.77002,86.754711 114.86624,-23.169911 -114.71943,23.886182 106.54767,48.771827 -106.84991,-48.10606 57.53151,102.084382 -58.16736,-101.72342 z"
       id="path7330"
       style="opacity:0.76000001;fill-opacity:1;fill-rule:nonzero;stroke:none;stroke-width:0.26458332;stroke-opacity:1" />
    <path
       d="m -255.78183,184.90019 -45.78961,-122.438668 -35.7084,125.749058 34.92308,-125.969417 -102.80214,80.744257 102.29633,-81.384132 -130.62897,4.897892 130.59586,-5.712872 -108.55996,-72.819302 109.01221,72.140512 -45.02474,-122.721999 45.78961,122.438672 35.7084,-125.749062 -34.92308,125.969421 102.80214,-80.744258 -102.29633,81.384133 130.62897,-4.897892 -130.59586,5.712872 108.55996,72.819305 -109.01221,-72.140514 z"
       id="path7332"
       style="opacity:0.76000001;fill-opacity:1;fill-rule:nonzero;stroke:none;stroke-width:0.26458332;stroke-opacity:1" />
    <path
       d="m -317.77964,107.2154 -9.75116,-94.274448 -48.03501,81.703089 47.52428,-82.001219 -86.88501,37.86492 86.64705,-38.406313 -92.54789,-20.4363617 92.67361,19.8585007 -62.86063,-70.931648 63.30199,70.53804 -9.16274,-94.333455 9.75117,94.274447 48.035,-81.703089 -47.52427,82.001219 86.885,-37.86492 -86.64705,38.406312 92.54789,20.436362 -92.6736,-19.8585 62.86062,70.931648 -63.30198,-70.538041 z"
       id="path7334"
       style="opacity:0.76000001;fill-opacity:1;fill-rule:nonzero;stroke:none;stroke-width:0.26458332;stroke-opacity:1" />
    <path
       d="m -339.90168,158.63169 -0.38676,-84.981334 -50.06732,68.667614 49.63789,-68.978678 -80.86712,26.124434 80.70254,-26.628506 -80.77844,-26.39739 80.94158,25.892849 -49.83513,-68.8363088 50.26367,68.5240168 0.1435,-84.982098 0.38676,84.981339 50.06732,-68.6676132 -49.63789,68.9786772 80.86712,-26.124434 -80.70254,26.628506 80.77844,26.39739 -80.94158,-25.892849 49.83513,68.836305 -50.26367,-68.524013 z"
       id="path7336"
       style="opacity:0.76000001;fill-opacity:1;fill-rule:nonzero;stroke:none;stroke-width:0.26458332;stroke-opacity:1" />
    <path
       d="m -315.07049,176.98145 -39.35796,-83.915648 -18.05073,90.912358 17.48312,-91.023218 -68.04029,62.939688 67.64625,-63.363009 -92.04078,10.926199 91.97081,-11.500286 -80.88481,-45.260731 81.16565,44.75516 -38.8336,-84.1595973 39.35796,83.9156513 18.05074,-90.91235719 -17.48313,91.02321719 68.0403,-62.939687 -67.64625,63.363008 92.04077,-10.926196 -91.9708,11.500283 80.8848,45.260735 -81.16564,-44.755164 z"
       id="path7338"
       style="opacity:0.76000001;fill-opacity:1;fill-rule:nonzero;stroke:none;stroke-width:0.26458332;stroke-opacity:1" />
    <path
       d="m -271.38692,253.15475 -43.50351,-75.31386 -9.61286,86.44262 9.07331,-86.50092 -58.58667,64.28325 58.18442,-64.64756 -85.18235,17.56987 85.07106,-18.10103 -79.24128,-35.85461 79.46346,35.35947 -43.03273,-75.58384 43.50351,75.31386 9.61286,-86.442618 -9.07331,86.500918 58.58667,-64.28325 -58.18442,64.64756 85.18235,-17.56987 -85.07106,18.10103 79.24128,35.85461 -79.46346,-35.35947 z"
       id="path7340"
       style="opacity:0.76000001;fill-opacity:1;fill-rule:nonzero;stroke:none;stroke-width:0.26458332;stroke-opacity:1" />
    <path
       d="m -250.22021,242.57142 -86.17582,-38.8833 46.34943,82.40093 -46.86268,-82.11012 -10.93658,93.90726 10.35042,-93.97367 -64.04518,69.54421 63.61001,-69.94248 -92.69071,18.61764 92.57274,-19.19563 -85.93153,-39.42025 86.17582,38.8833 -46.34942,-82.40093 46.86267,82.11012 10.93658,-93.90726 -10.35042,93.97368 64.04518,-69.54421 -63.61001,69.94247 92.69071,-18.61763 -92.57273,19.19562 z"
       id="path7342"
       style="opacity:0.76000001;fill-opacity:1;fill-rule:nonzero;stroke:none;stroke-width:0.26458332;stroke-opacity:1" />
    <path
       d="m -125.48811,226.69642 -166.99047,-4.72041 131.68469,102.79709 -132.32354,-101.97342 46.11254,160.56691 -47.11352,-160.27606 -57.07303,157.00563 56.09227,-157.35869 -138.45865,93.47354 137.87271,-94.33565 -166.95776,-5.76227 166.99047,4.72041 -131.6847,-102.79709 132.32355,101.97342 -46.11254,-160.566909 47.11352,160.276059 57.07303,-157.005629 -56.09227,157.358689 138.45865,-93.47354 -137.87271,94.33565 z"
       id="path7344"
       style="opacity:0.76000001;fill-opacity:1;fill-rule:nonzero;stroke:none;stroke-width:0.26458332;stroke-opacity:1" />
    <path
       d="m -6.8035853,217.62499 -137.2851147,-44.657 84.086687,117.34939 -84.817267,-116.82243 -0.94868,144.36256 0.0479,-144.36567 -85.62169,116.23415 84.89477,-116.76614 -137.59012,43.70824 137.31471,-44.5659 -137.0038,-45.51273 137.28512,44.65699 -84.08669,-117.349386 84.81727,116.822436 0.94868,-144.362568 -0.0479,144.365678 L -59.188029,54.488458 -144.08279,171.25459 -6.4926709,127.54635 -143.80739,172.11225 Z"
       id="path7346"
       style="opacity:0.76000001;fill-opacity:1;fill-rule:nonzero;stroke:none;stroke-width:0.26458332;stroke-opacity:1" />
    <path
       d="m -6.8035782,217.625 -84.8418028,-63.67671 30.577019,101.57707 -31.210226,-101.3843 -34.968172,100.15029 34.342591,-100.36653 -87.156721,60.46951 86.777718,-61.01216 -106.054358,-2.30857 106.066698,1.64679 L -177.71366,88.515529 -92.871862,152.19224 -123.44888,50.615173 -92.238655,151.99948 -57.270478,51.84918 -91.613074,152.21572 -4.4563565,91.746202 -91.23407,152.75836 14.820284,155.06693 -91.24641,153.42015 Z"
       id="path7348"
       style="opacity:0.76000001;fill-opacity:1;fill-rule:nonzero;stroke:none;stroke-width:0.26458332;stroke-opacity:1" />
    <path
       d="m -111.9765,-35.235278 -47.21174,-42.912731 12.5816,62.547218 -12.97163,-62.467495 -26.5856,57.997045 26.2232,-58.161801 -55.598,31.293974 55.40166,-31.640275 -63.37387,-7.362333 63.41857,6.966761 -46.94306,-43.206475 47.21174,42.912727 -12.58161,-62.547217 12.97164,62.467495 26.5856,-57.997045 -26.22321,58.1618 55.59801,-31.29397 -55.40166,31.640271 63.37387,7.362333 -63.41857,-6.966761 z"
       id="path7350"
       style="opacity:0.76000001;fill-opacity:1;fill-rule:nonzero;stroke:none;stroke-width:0.26458332;stroke-opacity:1" />
    <path
       d="M 83.154764,-61.321422 -83.315658,-88.067299 34.893042,32.159347 -84.063526,-87.327381 -59.098128,79.41935 -85.103477,-87.168361 -162.91731,62.406871 -86.038284,-87.650978 -236.90912,-12.379899 -86.510884,-88.590889 -252.81118,-116.37496 -86.34076,-89.629081 -204.54946,-209.85573 -85.592892,-90.368999 -110.55829,-257.11573 -84.552941,-90.52802 -6.7391035,-240.10325 -83.618134,-90.045403 67.252699,-165.31648 -83.145533,-89.105491 Z"
       id="path7352"
       style="opacity:0.76000001;fill-opacity:1;fill-rule:nonzero;stroke:none;stroke-width:0.26458332;stroke-opacity:1" />
    <path
       d="M 123.97618,-91.559529 -12.834625,-101.09934 91.688317,-12.312184 -13.386588,-100.44543 18.986465,32.821933 -14.217496,-100.24084 -66.359738,26.603124 -15.00997,-100.56372 l -116.74097,71.970483 116.289629,-72.697503 -136.748619,-10.39328 136.810807,9.53982 -104.522937,-88.78716 105.074901,88.13325 -32.373054,-133.26737 33.203962,133.06278 52.142241,-126.84397 -51.349768,127.16685 116.740968,-71.97049 -116.289627,72.6975 z"
       id="path7354"
       style="opacity:0.76000001;fill-opacity:1;fill-rule:nonzero;stroke:none;stroke-width:0.26458332;stroke-opacity:1" />
    <path
       d="M 220.73809,-72.660717 76.13109,-102.90914 174.65605,7.1771101 75.446111,-102.29224 90.447407,44.680929 74.529346,-102.19577 0.27698948,25.525556 73.730968,-102.65659 -61.413165,-42.972308 73.35593,-103.49868 l -144.415443,-31.15013 144.606996,30.24842 -98.524962,-110.08624 99.209941,109.46934 -15.001295,-146.97316 15.91806,146.8767 74.252353,-127.72133 -73.453974,128.18215 135.144134,-59.68429 -134.769096,60.52638 z"
       id="path7356"
       style="opacity:0.76000001;fill-opacity:1;fill-rule:nonzero;stroke:none;stroke-width:0.26458332;stroke-opacity:1" />
    <path
       d="M 271.38689,-59.053569 125.27769,-90.79485 224.12743,21.38419 124.57966,-90.175882 138.6136,58.681288 123.65112,-90.085417 47.508764,38.591503 122.84674,-90.558012 -14.388113,-31.211551 122.47377,-91.41315 -23.434533,-124.06548 122.67467,-92.324199 23.82493,-204.50324 123.3727,-92.943168 109.33877,-241.80034 124.30124,-93.033632 200.4436,-221.71055 125.10562,-92.561037 262.34048,-151.9075 125.47859,-91.705899 Z"
       id="path7358"
       style="opacity:0.76000001;fill-opacity:1;fill-rule:nonzero;stroke:none;stroke-width:0.26458332;stroke-opacity:1" />
    <path
       d="M 294.06546,-30.327387 176.32515,-89.112894 236.29606,28.028073 175.5954,-88.736418 155.25915,41.282631 174.78373,-88.860777 81.908083,4.3734954 174.20018,-89.438471 44.260469,-68.601298 174.06763,-90.248841 56.696416,-149.76786 l 117.740304,58.785509 -59.9709,-117.140969 60.70065,116.764493 20.33625,-130.019053 -19.52458,130.143412 92.87565,-93.234272 -92.2921,93.811966 129.93971,-20.837176 -129.80716,21.647545 z"
       id="path7360"
       style="opacity:0.76000001;fill-opacity:1;fill-rule:nonzero;stroke:none;stroke-width:0.26458332;stroke-opacity:1" />
    <path
       d="m 306.91665,18.053566 -71.35672,-71.659305 14.98477,100.011471 -15.60851,-99.916025 -46.66233,89.71881 46.10161,-90.008219 -90.48601,45.1566133 90.20249,-45.7203323 -99.74712,-16.653876 99.84909,16.031167 -70.90821,-72.10315 71.35672,71.659306 -14.98477,-100.011476 15.60852,99.91603 46.66232,-89.71881 -46.1016,90.008219 90.48601,-45.156609 -90.20249,45.720328 99.74711,16.653876 -99.84909,-16.031167 z"
       id="path7362"
       style="opacity:0.76000001;fill-opacity:1;fill-rule:nonzero;stroke:none;stroke-width:0.26458332;stroke-opacity:1" />
    <path
       d="M 14.820278,155.06693 -46.47205,37.565865 -66.768462,168.52886 -47.289605,37.441772 -140.68786,131.46313 -47.878081,36.860833 -178.70322,58.027588 -48.0127,36.044946 -166.29397,-23.72788 -47.642043,35.305751 -108.20002,-82.575467 -46.907688,34.925598 -26.611275,-96.037395 -46.090133,35.04969 47.308125,-58.971665 -45.501657,35.63063 85.323487,14.463874 -45.367038,36.446517 72.914233,96.219342 -45.737695,37.185711 Z"
       id="path7364"
       style="opacity:0.76000001;fill-opacity:1;fill-rule:nonzero;stroke:none;stroke-width:0.26458332;stroke-opacity:1" />
    <path
       d="M -7.5595211,145.80952 -110.79677,6.9373743 -109.98277,179.97709 -111.87646,6.9458219 -212.92811,147.41635 -112.75491,6.3180323 -277.07391,60.564408 -113.09659,5.2937998 -277.91867,-47.404247 -112.77098,4.2643465 -215.13971,-135.24926 -111.90246,3.6228884 -112.71646,-169.41682 -110.82277,3.6144408 -9.7711267,-136.85609 -109.94432,4.2422304 54.37468,-50.004145 -109.60265,5.2664628 55.219438,57.96451 -109.92825,6.2959162 Z"
       id="path7366"
       style="opacity:0.76000001;fill-opacity:1;fill-rule:nonzero;stroke:none;stroke-width:0.26458332;stroke-opacity:1" />
    <path
       d="M -23.43452,220.6488 -42.894737,103.49784 -96.672407,209.37989 -43.556448,103.16435 -149.29941,157.21501 -43.895762,102.50561 -161.21379,84.079357 -43.783073,101.77323 -127.86468,17.908271 -43.261424,101.24696 -61.990284,-16.023144 -42.530068,101.12781 11.247603,-4.7542387 -41.868357,101.46131 63.874601,47.410647 -41.529043,102.12005 75.788988,120.5463 -41.641732,102.85243 42.439871,186.71739 -42.163381,103.3787 Z"
       id="path7368"
       style="opacity:0.76000001;fill-opacity:1;fill-rule:nonzero;stroke:none;stroke-width:0.26458332;stroke-opacity:1" />
    <path
       d="M 18.898801,259.95831 -70.047796,138.14326 -70.630722,288.97451 -70.988938,138.14256 -160.11692,259.82497 -71.749925,137.5888 -215.3791,183.64383 -72.040087,136.69351 -215.30899,89.529693 -71.748591,135.79864 -159.93338,13.430968 -70.98678,135.24602 -70.403854,-15.585224 -70.045639,135.24672 19.082341,13.564317 -69.284651,135.80048 74.344523,89.745457 -68.994489,136.69578 74.274417,183.85959 -69.285985,137.59064 Z"
       id="path7370"
       style="opacity:0.76000001;fill-opacity:1;fill-rule:nonzero;stroke:none;stroke-width:0.26458332;stroke-opacity:1" />
    <path
       d="M 135.31548,221.40477 -117.20915,160.79345 50.225736,359.30788 -118.44454,161.84205 -99.670731,420.85935 -120.06035,161.96423 -257.11857,382.5486 -121.43938,161.11333 -361.97805,259.00904 -122.05489,159.61437 -374.19642,97.428577 -121.67179,158.03989 -289.10667,-40.47454 -120.43639,156.9913 -139.2102,-102.02601 -118.82059,156.86911 18.237631,-63.715259 -117.44156,157.72001 123.09711,59.824304 -116.82604,159.21897 Z"
       id="path7372"
       style="opacity:0.76000001;fill-opacity:1;fill-rule:nonzero;stroke:none;stroke-width:0.26458332;stroke-opacity:1" />
    <path
       d="M 110.36905,216.86905 -72.902532,201.06924 65.325777,322.44075 -73.657153,201.93409 -33.168485,381.37427 -74.776004,202.19022 -147.49227,371.15901 -75.831721,201.73979 -233.97778,295.69686 -76.421056,200.75485 -259.59049,183.81179 -76.318904,199.61161 -214.54721,78.2401 -75.564282,198.74675 -116.05295,19.306579 -74.445432,198.49063 -1.7291646,29.521833 -73.389715,198.94106 84.756346,104.98398 -72.800379,199.926 Z"
       id="path7374"
       style="opacity:0.76000001;fill-opacity:1;fill-rule:nonzero;stroke:none;stroke-width:0.26458332;stroke-opacity:1" />
    <path
       d="M 167.82143,156.39286 44.291912,162.01964 147.11007,230.71919 43.865254,162.66253 86.666312,278.67662 43.142203,162.93185 9.5776096,281.94705 42.39894,162.72473 l -97.109711,76.55656 96.630137,-77.161 -123.56222,4.8559 L 41.886662,161.34941 -60.931498,92.64986 42.313319,160.70652 -0.48773832,44.692424 43.03637,160.4372 76.600964,41.421995 43.779633,160.64432 140.88934,84.087764 44.259208,161.24875 Z"
       id="path7376"
       style="opacity:0.76000001;fill-opacity:1;fill-rule:nonzero;stroke:none;stroke-width:0.26458332;stroke-opacity:1" />
    <path
       d="M 289.52975,147.32143 105.14721,87.995062 218.46672,245.07857 104.16928,88.70519 103.51532,282.39595 102.96071,88.704881 -11.41693,245.01961 101.98313,87.99425 -82.42981,147.22604 101.60996,86.844736 -82.398816,26.369049 101.98372,85.695414 -11.335786,-71.38809 102.96166,84.985285 103.61562,-108.70548 104.17023,84.985595 218.54787,-71.329136 105.1478,85.696225 289.56075,26.464439 105.52097,86.845739 Z"
       id="path7378"
       style="opacity:0.76000001;fill-opacity:1;fill-rule:nonzero;stroke:none;stroke-width:0.26458332;stroke-opacity:1" />
    <path
       d="M 145.14285,111.03571 63.118901,-19.743158 51.646996,134.20305 62.158111,-19.811741 -37.610166,97.990342 61.421129,-20.431965 -88.53543,16.229601 61.189455,-21.366923 -81.677077,-79.849348 61.551582,-22.259495 -19.654764,-153.54761 62.36919,-22.768748 73.841094,-176.71496 63.329979,-22.700164 163.09826,-140.50225 64.066962,-22.079941 214.02352,-58.741507 64.298635,-21.144982 207.16517,37.337442 63.936508,-20.252411 Z"
       id="path7380"
       style="opacity:0.76000001;fill-opacity:1;fill-rule:nonzero;stroke:none;stroke-width:0.26458332;stroke-opacity:1" />
    <path
       d="M 71.059525,151.10119 -44.614059,37.896727 -18.568298,197.63792 -45.610276,38.062352 -118.43233,182.605 -46.513585,37.610783 -190.3879,111.74452 -46.978953,36.714505 -206.95044,12.122754 -46.828623,35.715865 -161.7936,-78.208158 -46.120019,34.996309 -72.16578,-124.74488 -45.123801,34.830684 27.698251,-109.71197 -44.220492,35.282252 99.653825,-38.851481 -43.755125,36.178531 116.21636,60.770282 -43.905454,37.177171 Z"
       id="path7382"
       style="opacity:0.76000001;fill-opacity:1;fill-rule:nonzero;stroke:none;stroke-width:0.26458332;stroke-opacity:1" />
    <path
       d="M 154.2143,70.214289 28.712434,50.096939 117.85731,140.69835 28.148851,50.654933 47.014393,176.35106 27.364921,50.775094 -31.254864,163.55428 26.660081,50.411524 -87.054267,107.19596 26.303554,49.703095 -99.070341,28.803053 26.431521,48.920402 -62.713353,-41.681013 26.995105,48.362408 8.1295621,-77.333719 27.779034,48.242248 86.398819,-64.536943 28.483874,48.605818 142.19822,-8.1786192 28.840401,49.314247 Z"
       id="path7384"
       style="opacity:0.76000001;fill-opacity:1;fill-rule:nonzero;stroke:none;stroke-width:0.26458332;stroke-opacity:1" />
    <path
       d="M 223.7619,160.92857 149.33585,36.085484 135.26396,180.7472 148.43295,36.000496 52.018515,144.76303 147.75243,35.401024 5.8225042,66.720783 147.55425,34.516045 14.32123,-23.570057 147.91409,33.68359 74.268467,-91.621455 148.69451,33.22163 162.76641,-111.44009 149.59742,33.306617 246.01185,-75.455918 150.27793,33.90609 292.20786,2.5863311 150.47612,34.791069 283.70914,92.877171 150.11628,35.623523 Z"
       id="path7386"
       style="opacity:0.76000001;fill-opacity:1;fill-rule:nonzero;stroke:none;stroke-width:0.26458332;stroke-opacity:1" />
    <path
       d="M 274.41072,173.77976 200.56476,24.256124 171.39453,188.45004 199.53969,24.077309 79.429715,139.76714 198.81549,23.33012 33.643701,46.326292 198.66879,22.299958 51.525192,-56.181288 199.15561,21.38031 126.24407,-128.60119 200.09002,20.92245 229.26025,-143.27146 201.1151,21.101265 321.22507,-94.588569 201.8393,21.848453 367.01108,-1.1477183 201.986,22.878615 349.12959,101.35986 201.49917,23.798263 Z"
       id="path7388"
       style="opacity:0.76000001;fill-opacity:1;fill-rule:nonzero;stroke:none;stroke-width:0.26458332;stroke-opacity:1" />
    <path
       d="M 92.226188,267.51786 251.27117,125.5041 38.998042,145.58724 251.14173,124.17999 67.60459,15.656571 251.8153,123.03267 167.1191,-72.645038 253.03461,122.50039 299.53041,-85.589378 254.33391,122.78646 414.26191,-18.232152 255.21693,123.7816 467.49006,103.69847 255.34637,125.10572 438.88351,233.62913 254.6728,126.25303 339.369,321.93074 253.45349,126.78531 206.95768,334.87508 252.15419,126.49925 Z"
       id="path7390"
       style="opacity:0.76000001;fill-opacity:1;fill-rule:nonzero;stroke:none;stroke-width:0.26458332;stroke-opacity:1" />
    <path
       d="M -18.568302,197.63792 165.81618,122.51482 -27.209464,73.706846 166.11697,121.30946 38.644545,-31.634645 167.0688,120.5111 153.83973,-78.149686 168.30811,120.42469 274.37545,-48.071113 169.36152,121.08323 354.21115,47.112082 169.82667,122.23518 362.85232,171.04315 169.52589,123.44054 296.99831,276.38464 168.57406,124.2389 181.80312,322.89969 167.33474,124.32531 61.267402,292.82111 166.28133,123.66677 Z"
       id="path7392"
       style="opacity:0.76000001;fill-opacity:1;fill-rule:nonzero;stroke:none;stroke-width:0.26458332;stroke-opacity:1" />
    <path
       d="M 210.91072,193.43453 -2.0019045,109.48776 119.69833,303.31216 -3.2089263,110.25089 -18.678495,338.59173 -4.633988,110.15881 -151.36451,285.79765 -5.7327642,109.24669 -227.67816,165.09546 -6.0855599,107.86292 -218.47024,22.589289 -5.5576191,106.53606 -127.25785,-87.288339 -4.3505972,105.77293 11.118971,-122.56791 -2.9255356,105.865 143.80498,-69.773828 -1.8267594,106.77713 220.11864,50.928364 -1.4739636,108.1609 Z"
       id="path7394"
       style="opacity:0.76000001;fill-opacity:1;fill-rule:nonzero;stroke:none;stroke-width:0.26458332;stroke-opacity:1" />
    <path
       d="M -73.327374,217.62499 150.43358,178.73962 -52.820745,77.40495 151.06192,177.46942 46.188737,-23.98195 152.31686,176.81113 185.88282,-47.809361 153.71906,177.01619 312.9031,15.023976 154.73293,178.00629 378.73216,140.51786 154.9712,179.40323 358.22553,280.7379 154.34287,180.67343 259.21605,382.1248 153.08793,181.33172 119.52197,405.95221 151.68573,181.12666 -7.4983143,343.11888 150.67186,180.13656 Z"
       id="path7396"
       style="opacity:0.76000001;fill-opacity:1;fill-rule:nonzero;stroke:none;stroke-width:0.26458332;stroke-opacity:1" />
    <path
       d="M 140.60714,269.78572 9.2816422,176.59917 59.799473,329.49805 8.3285944,176.91736 -40.673329,330.30878 7.370536,176.61459 -122.43407,271.90825 6.7734127,175.80651 -154.25293,176.60347 6.7653053,174.80178 -123.97618,80.797628 7.3493106,173.98418 -43.16852,21.085297 8.3023584,173.66599 57.304282,20.27456 9.2604168,173.96876 139.06502,78.675091 9.8575401,174.77683 170.88388,173.97987 9.8656475,175.78156 Z"
       id="path7398"
       style="opacity:0.76000001;fill-opacity:1;fill-rule:nonzero;stroke:none;stroke-width:0.26458332;stroke-opacity:1" />
    <path
       d="M 79.374998,259.20238 74.090101,184.5919 34.115492,247.81123 73.694859,184.34371 4.1953294,211.99273 73.520986,183.91059 1.0429953,165.42833 73.634898,183.458 25.862574,125.90404 l 48.130509,57.25476 -4.819253,-74.642 5.284897,74.61047 39.974613,-63.21933 -39.57937,63.46753 69.49953,-27.64903 -69.325658,28.08214 72.477988,18.48227 -72.591899,-18.02967 47.772319,57.55396 -48.130504,-57.25476 z"
       id="path7400"
       style="opacity:0.76000001;fill-opacity:1;fill-rule:nonzero;stroke:none;stroke-width:0.26458332;stroke-opacity:1" />
    <path
       d="M -57.270483,51.849183 -11.33594,-61.068052 -115.26837,2.6370035 -11.735458,-61.715311 -133.26345,-71.266788 -11.678227,-62.473785 -104.38222,-141.63346 -11.186105,-63.053764 -39.656326,-181.58532 -10.447067,-63.233715 36.191143,-175.86214 -9.7434003,-62.944903 94.18903,-126.64996 -9.3438816,-62.297644 112.18411,-52.746167 -9.4011134,-61.539169 83.302882,17.620501 -9.8932351,-60.95919 18.576986,57.572369 -10.632273,-60.77924 Z"
       id="path7402"
       style="opacity:0.76000001;fill-opacity:1;fill-rule:nonzero;stroke:none;stroke-width:0.26458332;stroke-opacity:1" />
    <path
       d="M 374.19645,27.880945 271.96058,-101.33732 277.69117,63.334153 270.9332,-101.29836 178.77788,35.292019 270.07913,-101.87072 115.2381,-45.534316 l 154.4865,-57.301454 -158.38273,-45.43617 158.66315,44.44704 -101.42761,-129.85367 102.23588,129.21827 -5.73059,-164.67148 6.75796,164.63252 92.15532,-136.59038 -91.30125,137.16273 154.84103,-56.3364 -154.4865,57.30146 158.38273,45.436165 -158.66315,-44.447035 z"
       id="path7404"
       style="opacity:0.76000001;fill-opacity:1;fill-rule:nonzero;stroke:none;stroke-width:0.26458332;stroke-opacity:1" />
    <path
       d="M 353.78572,134.47023 269.46875,-11.276883 250.96998,156.08311 268.42413,-11.38905 155.08658,113.13472 267.64494,-12.09381 102.7597,22.029896 267.42881,-13.121967 113.97644,-82.432424 267.8583,-14.080801 184.45238,-160.35118 268.76935,-14.60407 287.26812,-181.96406 269.81397,-14.491903 383.15152,-139.01568 270.59316,-13.787143 435.4784,-47.910849 270.80929,-12.758986 424.26166,56.551471 270.3798,-11.800152 Z"
       id="path7406"
       style="opacity:0.76000001;fill-opacity:1;fill-rule:nonzero;stroke:none;stroke-width:0.26458332;stroke-opacity:1" />
    <path
       d="M 325.81548,279.61308 270.73297,144.25754 234.85106,285.91803 269.84836,144.03641 157.55334,237.5513 269.26268,143.33755 123.44742,152.98733 269.19963,142.42791 145.56061,64.526683 269.6833,141.65493 215.44642,5.9583273 270.52893,141.31387 306.41085,-0.34662044 271.41354,141.535 383.70856,48.020115 271.99922,142.23386 417.81448,132.58409 272.06227,143.1435 395.70129,221.04473 271.57861,143.91648 Z"
       id="path7408"
       style="opacity:0.76000001;fill-opacity:1;fill-rule:nonzero;stroke:none;stroke-width:0.26458332;stroke-opacity:1" />
    <path
       d="m 141.3631,272.80951 103.098,-74.44989 -127.16381,-1.16174 127.16859,0.36827 -102.19484,-75.68488 102.66509,75.04575 -38.1909,-121.298973 38.94702,121.058313 40.40066,-120.580977 -39.6475,120.830717 103.56054,-73.80515 -103.098,74.44989 127.16381,1.16174 -127.16859,-0.36827 102.19484,75.68488 -102.66509,-75.04575 38.1909,121.29897 L 245.6768,199.2541 205.27614,319.83508 244.92363,199.00436 Z"
       id="path7410"
       style="opacity:0.76000001;fill-opacity:1;fill-rule:nonzero;stroke:none;stroke-width:0.26458332;stroke-opacity:1" />
    <path
       d="M -59.720238,272.80953 62.150568,215.52278 -69.956929,189.41006 62.31093,214.69797 -29.217609,115.9215 62.925476,214.12494 46.936686,80.413975 63.759471,214.02258 129.4176,96.450156 64.494356,214.42997 186.72024,157.90477 64.849432,215.19151 196.95693,241.30423 64.68907,216.01632 156.21761,314.7928 64.074524,216.58935 80.063314,350.30032 63.240529,216.69172 -2.4176042,334.26414 62.505644,216.28432 Z"
       id="path7412"
       style="opacity:0.76000001;fill-opacity:1;fill-rule:nonzero;stroke:none;stroke-width:0.26458332;stroke-opacity:1" />
  </g>
</svg>
